<svg xmlns="http://www.w3.org/2000/svg" height="40" fill="none" class="max-h-40px svg-white" viewBox="0 0 1500 300"><!--!--><path fill="#fff" d="m422.9 170.05 26.43-96.47A17.243 17.243 0 0 1 466 60.91h27.26L442.7 210.82h-39.59L353 60.91h26.94a17.239 17.239 0 0 1 16.63 12.68l26.33 96.46ZM545.001 210.82c-16.853 0-30.487-5-40.9-15s-15.627-23.06-15.64-39.18v-2.84c0-11.22 2.083-21.12 6.25-29.7a45.623 45.623 0 0 1 18.22-19.92c8-4.667 17.473-7 28.42-7 15.42 0 27.6 4.78 36.54 14.34 8.94 9.56 13.407 22.893 13.4 40v13.18h-68c1.22 6.153 3.887 10.983 8 14.49 4.113 3.506 9.447 5.263 16 5.27a34.515 34.515 0 0 0 15.24-3.2 17.124 17.124 0 0 1 20.59 4.19l5.17 6.11c-4.26 5.88-10.3 10.546-18.12 14a61.282 61.282 0 0 1-25.17 5.26Zm-3.86-87.38c-10 0-15.953 6.623-17.86 19.87h34.51v-2.63c.127-5.48-1.26-9.724-4.16-12.73-2.9-3.007-7.067-4.51-12.5-4.51h.01ZM680.85 129.15l-11.68-.84c-11.16 0-18.32 3.503-21.48 10.51v72h-17.87a17.576 17.576 0 0 1-12.433-5.142 17.594 17.594 0 0 1-5.157-12.428V97.09h18.58a15.869 15.869 0 0 1 15.831 14.61c6-11.14 14.333-16.71 25-16.71a34.65 34.65 0 0 1 9.89 1.26l-.681 32.9ZM737.281 210.82h-17.61a17.432 17.432 0 0 1-17.24-17.62V96.79h17.57a17.434 17.434 0 0 1 15.986 10.935 17.432 17.432 0 0 1 1.254 6.685l.04 96.41ZM1032.84 178c0-2.9-1.52-5.24-4.57-7-3.05-1.76-8.84-3.58-17.37-5.47-8.53-1.89-15.58-4.38-21.13-7.46a35.462 35.462 0 0 1-12.7-11.21 26.724 26.724 0 0 1-4.36-15.11c0-10.08 4.163-18.383 12.49-24.91 8.327-6.527 19.23-9.807 32.71-9.84 14.49 0 26.14 3.28 34.94 9.84 8.8 6.56 13.2 15.18 13.2 25.86h-21.85c-2.87.021-5.69-.694-8.21-2.077a16.802 16.802 0 0 1-6.14-5.823c-2.15-3.52-6.15-5.283-12-5.29-3.26-.098-6.45.966-9 3a9.172 9.172 0 0 0-2.71 3.291 9.228 9.228 0 0 0-.95 4.159c0 3.053 1.49 5.523 4.47 7.41 2.98 1.887 7.74 3.44 14.27 4.66a124.309 124.309 0 0 1 17.22 4.37c16.52 5.68 24.78 15.857 24.78 30.53 0 10-4.45 18.147-13.36 24.44-8.91 6.293-20.43 9.44-34.58 9.44a59.854 59.854 0 0 1-25.19-5.07A42.088 42.088 0 0 1 975.45 192a31.188 31.188 0 0 1-6.2-18.36H989a17.154 17.154 0 0 1 14.44 8 11.232 11.232 0 0 0 2.92 3.07c3.25 2.333 7.42 3.5 12.49 3.5 4.67 0 8.17-.947 10.52-2.84 1.11-.874 2-1.995 2.61-3.275a9.18 9.18 0 0 0 .86-4.095ZM1123.19 160v33.6a17.23 17.23 0 0 1-5.03 12.166 17.245 17.245 0 0 1-12.16 5.054h-19V60.91h59.91c11.47 0 21.63 2.11 30.46 6.33a47.857 47.857 0 0 1 20.52 18 49.086 49.086 0 0 1 7.27 26.51c0 14.62-5.24 26.307-15.72 35.06-10.48 8.753-24.86 13.15-43.15 13.19h-23.1Zm0-27.91h23.72c7.01 0 12.35-1.75 16-5.25 3.65-3.5 5.49-8.44 5.51-14.82 0-7.007-1.89-12.603-5.67-16.79-3.78-4.187-8.93-6.313-15.46-6.38h-24.13l.03 43.24ZM1397.22 159.83l14.91-50.47a17.29 17.29 0 0 1 6.22-8.928A17.24 17.24 0 0 1 1428.67 97H1453l-45.47 130-2 4.74c-6.46 14.413-17.87 21.62-34.23 21.62h-.13a14.325 14.325 0 0 1-14.2-14.36v-12.35h4.54c4.88 0 8.61-.703 11.19-2.11s4.49-3.933 5.72-7.58l2.78-7.42L1342.48 97h24a17.216 17.216 0 0 1 10.41 3.496c3 2.269 5.17 5.456 6.19 9.074l14.14 50.26ZM817.539 184.09c-4.4 0-7.346-.813-8.84-2.44-1.5-1.62-2.24-4.5-2.24-8.63v-50.29h18.1v-25.8h-18.1V78.88c0-.33-.08-.87-.14-1.3-1.16-8.32-8.28-16.41-16.93-16.41h-17.2v35.76h-14v25.8h14v54.55c0 11.333 2.814 19.767 8.44 25.3 5.627 5.533 14.34 8.31 26.14 8.33 1.96 0 3.894-.087 5.8-.26h1.08a13.46 13.46 0 0 0 7.578-3.057 13.456 13.456 0 0 0 3.712-4.903c.325-.727.58-1.484.76-2.26.19-.761.314-1.538.37-2.32V183.48c-2.82.446-5.674.65-8.53.61ZM948.17 187.32V97H920v9a42.36 42.36 0 0 0-26.17-9.27h-1.13a29.347 29.347 0 0 0-5.94.62c-23.07 4.06-40.76 27.73-40.76 56.32 0 31.45 21.42 56.94 47.85 56.94a42.376 42.376 0 0 0 26.47-9.51c2.32 5 7.18 9.55 17.21 9.51 13.42-.06 16.62 0 17.26 0-.24-.29-3.79-4.82-5.78-19.75a16.15 16.15 0 0 0-.84-3.54Zm-48.34-.07c-10.6-1.63-25.2-11.73-25.2-32.25 0-18.91 12.65-29.68 22.69-31.27.831-.129 1.67-.196 2.51-.2 10.56 0 20.16 11.34 20.16 31.86v29.07c-10.99 3.48-14.72 3.62-20.16 2.79ZM719.67 79.61c9.389 0 17-7.598 17-16.97s-7.611-16.97-17-16.97-17 7.598-17 16.97 7.611 16.97 17 16.97ZM1321.91 187.5V97.12h-28.16v9a42.427 42.427 0 0 0-26.17-9.26h-1.12c-2.02-.004-4.03.204-6 .62-23.07 4.07-40.77 27.73-40.77 56.32 0 31.45 21.42 56.95 47.84 56.95a42.469 42.469 0 0 0 26.48-9.51c2.32 5 7.18 9.55 17.2 9.51 13.43-.06 16.62 0 17.27 0-.24-.29-3.79-4.82-5.78-19.74-.13-1.196-.4-2.373-.79-3.51Zm-48.33-.08c-10.61-1.63-25.2-11.73-25.2-32.25 0-18.9 12.65-29.68 22.68-31.26.83-.137 1.68-.208 2.52-.21 10.56 0 20.16 11.34 20.16 31.86v29.08c-10.98 3.48-14.74 3.62-20.16 2.78ZM252.4 97.79l7.45 7.45 6.11-6.1-25.65-25.66-26.81 26.81 6.11 6.1 20.7-20.69 5.98 5.98-4.55 4.54 6.11 6.11 4.55-4.54ZM283.27 116.44l-11.2-11.2-6.11 6.11 5.09 5.09-6.11 6.11-4.54-4.54-6.11 6.1 4.55 4.55-11.54 11.53 6.11 6.11 29.86-29.86ZM239.3 110.89l-4.55 4.54-4.95-4.96-6.11 6.11 16.02 16.02 6.11-6.11-4.96-4.95 4.55-4.55-6.11-6.1Z" style="--darkreader-inline-fill:#e8e6e3"/><path fill="#fff" d="m260.72 151.13-10.31 10.3a21.742 21.742 0 0 0-3.75-5l-50.94-50.94L220 81.15 208.88 70l-24.22 24.22-1-.81L143 52.75a21.832 21.832 0 0 0-30.82 0l-7 7-44.82 44.82-7 7a21.799 21.799 0 0 0 0 30.81L157 246a21.796 21.796 0 0 0 28.2 2.19l86.3-86.29-10.78-10.77Zm-26.66 26.27-56 56a7.943 7.943 0 0 1-11.21 0L66 132.58a7.914 7.914 0 0 1-1.72-8.632A7.9 7.9 0 0 1 66 121.38l2.8-2.8a7.917 7.917 0 0 1 11.2 0 7.941 7.941 0 0 0 11.21 0l28-28a7.941 7.941 0 0 0 0-11.21 7.909 7.909 0 0 1 0-11.2l2.8-2.8a7.918 7.918 0 0 1 11.2 0L234.06 166.2a7.919 7.919 0 0 1 0 11.2ZM304.4 101.74 280 77.32l-11.17 11.14 24.42 24.42a3.388 3.388 0 0 1 0 4.78l-23.44 23.43L281 152.24l23.4-23.44a19.139 19.139 0 0 0 0-27.06ZM238.39 62.79a3.39 3.39 0 0 1 4.77 0l16.12 16.12 11.15-11.15-16.12-16.11a19.117 19.117 0 0 0-13.535-5.61 19.132 19.132 0 0 0-13.535 5.61l-8.8 8.8 11.15 11.14 8.8-8.8Z" style="--darkreader-inline-fill:#e8e6e3"/></svg>